<svg xmlns="http://www.w3.org/2000/svg" viewBox="273 966.048 1370.6 60.952">
  <defs>
    <style>
      .cls-1 {
        fill: #1e1e1e;
        font-size: 15px;
        font-family: Helvetica;
      }

      .cls-2, .cls-3, .cls-4, .cls-5, .cls-7 {
        fill: none;
      }

      .cls-2, .cls-3, .cls-4, .cls-7 {
        stroke: #0060df;
      }

      .cls-2, .cls-3 {
        stroke-width: 2px;
      }

      .cls-2 {
        font-size: 52px;
        font-family: Helvetica-Bold, Helvetica;
        font-weight: 700;
      }

      .cls-4 {
        stroke-width: 1.5px;
      }

      .cls-6 {
        fill: #0060df;
      }

      .cls-8 {
        stroke: none;
      }
    </style>
  </defs>
  <g id="Group_57" data-name="Group 57" transform="translate(-3 -8)">
    <text id="Наша_команда_занимается_ремонтом_более_17_лет" data-name="Наша команда занимается
ремонтом более 17 лет" class="cls-1" transform="translate(359 998.103)"><tspan x="0" y="0">Наша команда занимается</tspan><tspan x="0" y="20">ремонтом более 17 лет</tspan></text>
    <text id="_17" data-name="17" class="cls-2" transform="translate(278 1021)"><tspan x="0" y="0">17</tspan></text>
    <text id="Выгодная_цена_от_7000_рублей_кв._м" data-name="Выгодная цена
от 7000 рублей кв. м" class="cls-1" transform="translate(664.717 995.424)"><tspan x="0" y="0">Выгодная цена</tspan><tspan x="0" y="20">от 7000 рублей кв. м</tspan></text>
    <text id="Работа_выполняется_в_установленные_сроки" data-name="Работа выполняется в
установленные сроки" class="cls-1" transform="translate(947.205 995)"><tspan x="0" y="0">Работа выполняется в</tspan><tspan x="0" y="20">установленные сроки</tspan></text>
    <text id="Заказчик_будет_уверен_что_получит_именно_то_что_хотел_в_лучшем_исполнении_от_мастеров_своего_дела" data-name="Заказчик будет  уверен, что получит именно то, что
хотел в лучшем исполнении от мастеров своего дела" class="cls-1" transform="translate(1266.6 996.14)"><tspan x="0" y="0" xml:space="preserve">Заказчик будет  уверен, что получит именно то, что</tspan><tspan x="0" y="20">хотел в лучшем исполнении от мастеров своего дела</tspan></text>
    <g id="ruble" transform="translate(588.624 977.562)">
      <path id="Path_4" data-name="Path 4" class="cls-3" d="M229.152,158.533H222.8v9.58h6.352a4.79,4.79,0,0,0,0-9.58Z" transform="translate(-201.138 -143.119)"/>
      <path id="Path_5" data-name="Path 5" class="cls-3" d="M24.89,0A24.89,24.89,0,1,0,49.78,24.89,24.89,24.89,0,0,0,24.89,0Zm3.124,27.911H21.662v3.332h6.352a1.458,1.458,0,1,1,0,2.917H21.662v3.228a1.458,1.458,0,0,1-2.917,0V34.159H17.08a1.458,1.458,0,0,1,0-2.917h1.666V27.911H17.08a1.458,1.458,0,0,1,0-2.917h1.666V13.955A1.458,1.458,0,0,1,20.2,12.5h7.811a7.707,7.707,0,1,1,0,15.414Z"/>
    </g>
    <g id="deadline" transform="translate(876.734 977.421)">
      <g id="Group_27" data-name="Group 27">
        <g id="Group_26" data-name="Group 26">
          <g id="Rectangle_29" data-name="Rectangle 29" class="cls-4" transform="translate(0 29.255)">
            <rect class="cls-8" width="15.063" height="3.483"/>
            <rect class="cls-5" x="0.75" y="0.75" width="13.563" height="1.983"/>
          </g>
          <g id="Rectangle_30" data-name="Rectangle 30" class="cls-4" transform="translate(0 36.221)">
            <rect class="cls-8" width="12.451" height="3.483"/>
            <rect class="cls-5" x="0.75" y="0.75" width="10.951" height="1.983"/>
          </g>
          <g id="Rectangle_31" data-name="Rectangle 31" class="cls-4" transform="translate(0 22.29)">
            <rect class="cls-8" width="17.675" height="3.483"/>
            <rect class="cls-5" x="0.75" y="0.75" width="16.175" height="1.983"/>
          </g>
          <g id="Path_6" data-name="Path 6" transform="translate(-36.031)">
            <path id="Path_1" data-name="Path 1" class="cls-5" d="M74.73,9.643l1.586-1.837,1.977,1.707,2.276-2.636L73.98,1.186,71.7,3.822l1.98,1.707-1.588,1.84A20.346,20.346,0,0,0,61.8,3.557V0H58.32V3.557a20.346,20.346,0,0,0-10.342,3.85L46.356,5.529l1.977-1.707L46.057,1.186l-6.59,5.691,2.276,2.636L43.72,7.806l1.627,1.883a20.414,20.414,0,0,0-5.166,9.118h3.634A17.071,17.071,0,1,1,51.964,39.05v3.877A20.553,20.553,0,0,0,74.73,9.643Z"/>
            <path id="Path_2" data-name="Path 2" class="cls-6" d="M59.82,1.5V4.937l-1.375.115a18.908,18.908,0,0,0-9.583,3.567l-1.116.815-.9-1.046L45.221,6.51l-.98-1.135,1.135-.98.842-.727L45.9,3.3l-4.319,3.73L41.9,7.4l.842-.727,1.135-.98.98,1.135,1.627,1.883.9,1.042-.961.986a19.079,19.079,0,0,0-4.19,6.571h.526A18.569,18.569,0,1,1,53.464,41.383v.527A19.053,19.053,0,0,0,73.659,10.693l-.967-.986.9-1.045,1.586-1.837.98-1.135,1.135.98.842.727.316-.365L74.135,3.3l-.316.365.842.727,1.135.98-.98,1.135L73.227,8.349l-.9,1.043-1.115-.809a18.911,18.911,0,0,0-9.533-3.532L60.3,4.937V1.5H59.82M58.32,0H61.8V3.557A20.346,20.346,0,0,1,72.092,7.369L73.68,5.529,71.7,3.822,73.98,1.186l6.59,5.691L78.293,9.513,76.316,7.806,74.73,9.643A20.557,20.557,0,0,1,51.964,42.927V39.05a17.064,17.064,0,1,0-8.149-20.243H40.181a20.414,20.414,0,0,1,5.166-9.118L43.72,7.806,41.743,9.513,39.467,6.877l6.59-5.691,2.276,2.636L46.356,5.529l1.622,1.878A20.346,20.346,0,0,1,58.32,3.557Z"/>
          </g>
          <g id="Path_7" data-name="Path 7" transform="translate(-233.71 -109.552)">
            <path id="Path_3" data-name="Path 3" class="cls-5" d="M256,120v15.324h11.58v-3.483h-8.1V120Z"/>
            <path id="Path_4-2" data-name="Path 4" class="cls-6" d="M257.5,121.5v12.324h8.58v-.483h-8.1V121.5H257.5M256,120h3.483v11.841h8.1v3.483H256Z"/>
          </g>
        </g>
      </g>
    </g>
    <g id="team" transform="translate(1180.783 974.547)">
      <g id="Group_29" data-name="Group 29" transform="translate(19.427 39.78)">
        <g id="Group_28" data-name="Group 28">
          <path id="Path_8" data-name="Path 8" class="cls-7" d="M169.2,404.814a.866.866,0,0,0-.866.866v3.7a.866.866,0,1,0,1.731,0v-3.7A.866.866,0,0,0,169.2,404.814Z" transform="translate(-168.339 -404.814)"/>
        </g>
      </g>
      <g id="Group_31" data-name="Group 31" transform="translate(37.93 39.78)">
        <g id="Group_30" data-name="Group 30">
          <path id="Path_9" data-name="Path 9" class="cls-7" d="M329.527,404.814a.866.866,0,0,0-.866.866v3.7a.866.866,0,1,0,1.731,0v-3.7A.866.866,0,0,0,329.527,404.814Z" transform="translate(-328.661 -404.814)"/>
        </g>
      </g>
      <g id="Group_33" data-name="Group 33" transform="translate(6.476 20.352)">
        <g id="Group_32" data-name="Group 32">
          <path id="Path_10" data-name="Path 10" class="cls-7" d="M62.916,237.493c-2.01-1-5.778-1.017-5.938-1.017a.866.866,0,0,0,0,1.731,14.976,14.976,0,0,1,5.164.834.866.866,0,1,0,.774-1.548Z" transform="translate(-56.113 -236.476)"/>
        </g>
      </g>
      <g id="Group_35" data-name="Group 35" transform="translate(3.7 37.93)">
        <g id="Group_34" data-name="Group 34">
          <path id="Path_11" data-name="Path 11" class="cls-7" d="M32.93,388.782a.866.866,0,0,0-.866.866V395.2a.866.866,0,1,0,1.731,0v-5.551a.866.866,0,0,0-.865-.867Z" transform="translate(-32.064 -388.782)"/>
        </g>
      </g>
      <g id="Group_37" data-name="Group 37">
        <g id="Group_36" data-name="Group 36">
          <path id="Path_12" data-name="Path 12" class="cls-7" d="M57.075,94.818,53.57,93.066a.059.059,0,0,1-.033-.053V91.251a6.392,6.392,0,0,0,2.712-4.4A7.32,7.32,0,0,0,54.3,77.323a3.714,3.714,0,0,0,.158-1.072,4.592,4.592,0,0,0-9.132,0,3.714,3.714,0,0,0,.158,1.072,7.379,7.379,0,0,0-2.4,3.131c-.215-2.108-.438-4.6-.652-7.5A14.326,14.326,0,0,0,38.448,63.6a12.38,12.38,0,0,0-8.906-3.473A12.38,12.38,0,0,0,20.636,63.6a14.327,14.327,0,0,0-3.984,9.355c-.075,1.017-.151,1.981-.228,2.9H8.266a5.5,5.5,0,0,0-5.491,5.491V81.4a4.589,4.589,0,0,0,.482,2.042l.443.886v1.413A6.752,6.752,0,0,0,6.476,91.19v1.25a.363.363,0,0,1-.262.347L2.641,93.809A3.656,3.656,0,0,0,0,97.309v7.158a.866.866,0,1,0,1.731,0V97.309a1.918,1.918,0,0,1,1.385-1.836L6.69,94.452a2.054,2.054,0,0,0,.368-.146L9.251,96.5v7.968a.866.866,0,1,0,1.731,0V96.5l2.209-2.209a4.739,4.739,0,0,0,.8.291l.877.251a4.567,4.567,0,0,0-1.922,3.72v5.915a.866.866,0,1,0,1.731,0V98.552a2.836,2.836,0,0,1,1.69-2.593l4.949-2.186a9.194,9.194,0,0,0,16.448,0l4.947,2.185a2.836,2.836,0,0,1,1.69,2.593v5.915a.866.866,0,1,0,1.731,0V98.552a4.565,4.565,0,0,0-1.093-2.961l1.34-.67,1.006.956a3.639,3.639,0,0,0,5.016,0l1.005-.955L56.3,96.366a1.9,1.9,0,0,1,1.056,1.708v6.392a.866.866,0,0,0,1.731,0V98.075a3.622,3.622,0,0,0-2.012-3.257ZM49.9,73.878a2.638,2.638,0,0,1,2.835,2.372.984.984,0,0,1-.009.163,7.333,7.333,0,0,0-5.652,0c0-.054-.009-.108-.009-.163A2.638,2.638,0,0,1,49.9,73.878ZM10.117,94.917,8.144,92.945a2.072,2.072,0,0,0,.063-.5V92.08a6.063,6.063,0,0,0,1.713.3h.2a6.428,6.428,0,0,0,1.907-.288v.347a2.378,2.378,0,0,0,.054.514Zm-.145-4.269a4.843,4.843,0,0,1-4.54-4.915V84.114a.865.865,0,0,0-.091-.387l-.534-1.069a2.851,2.851,0,0,1-.3-1.268v-.052a3.764,3.764,0,0,1,3.76-3.76h7.461v3.593a3.778,3.778,0,0,1-.4,1.681l-.437.874a.865.865,0,0,0-.091.387v1.85a4.685,4.685,0,0,1-4.83,4.683Zm7.234,3.05-2.734-.781c-.714-.2-.714-.284-.714-.476V91.248a6.391,6.391,0,0,0,1.317-1.211,1.775,1.775,0,0,0,.628.707,19.112,19.112,0,0,0,3.929,1.883Zm12.338,3.428a7.453,7.453,0,0,1-6.639-4.052l1.26-.556a2.717,2.717,0,0,0,1.619-2.484V87.955a10.113,10.113,0,0,0,7.52,0v2.077a2.717,2.717,0,0,0,1.619,2.484l1.26.556a7.435,7.435,0,0,1-6.639,4.053Zm7.505-5.562-1.427-.63a.985.985,0,0,1-.587-.9V87.056a10.117,10.117,0,0,0,4.626-8.493V76.941a3.61,3.61,0,0,0-1.23-2.73c-1.739-1.513-5.676-4.152-12.5-4.834a.866.866,0,0,0-.172,1.723c6.348.635,9.953,3.041,11.537,4.418a1.88,1.88,0,0,1,.635,1.424v1.623a8.386,8.386,0,1,1-16.771,0V77.84a.943.943,0,0,1,.493-.815,6.851,6.851,0,0,0,3.163-3.738.866.866,0,1,0-1.642-.547,5.147,5.147,0,0,1-2.384,2.785,2.69,2.69,0,0,0-1.361,2.315v.724a10.116,10.116,0,0,0,4.626,8.493v2.976a.985.985,0,0,1-.587.9l-1.427.63a19.121,19.121,0,0,1-5.4-2.272.043.043,0,0,1-.021-.05c.3-1.785,1.078-6.932,1.759-16.164a12.63,12.63,0,0,1,3.473-8.25,10.685,10.685,0,0,1,7.691-2.975,10.685,10.685,0,0,1,7.691,2.975,12.631,12.631,0,0,1,3.473,8.25c.681,9.231,1.457,14.379,1.759,16.164a.043.043,0,0,1-.021.05,19.126,19.126,0,0,1-5.4,2.272Zm9.206,1.449a.059.059,0,0,1-.033.053L43.51,94.422c-.032-.015-.063-.032-.1-.047l-3.957-1.748a19.115,19.115,0,0,0,3.928-1.883,1.779,1.779,0,0,0,.787-1.792l-.02-.122a6.4,6.4,0,0,0,2.1,2.421Zm4.956,1.609a1.908,1.908,0,0,1-2.631,0l-.8-.764a1.791,1.791,0,0,0,.21-.845v-.921a6.442,6.442,0,0,0,3.819,0v.921a1.791,1.791,0,0,0,.21.845ZM49.9,90.65a4.673,4.673,0,0,1-4.656-4.174.866.866,0,0,0-.123-.36,5.61,5.61,0,1,1,10.1-1.175c-2.458-2.5-6.781-3.475-6.99-3.521a.866.866,0,0,0-1.052.845,2.116,2.116,0,0,1-.672,1.238.865.865,0,0,0,1.224,1.224,4.188,4.188,0,0,0,.941-1.4c1.456.433,4.479,1.525,5.836,3.443A4.673,4.673,0,0,1,49.9,90.65Z" transform="translate(0 -60.121)"/>
        </g>
      </g>
      <g id="Group_39" data-name="Group 39" transform="translate(53.657 39.073)">
        <g id="Group_38" data-name="Group 38">
          <path id="Path_13" data-name="Path 13" class="cls-7" d="M465.8,398.692a.866.866,0,0,0-.866.866v4.407a.866.866,0,1,0,1.731,0v-4.407a.866.866,0,0,0-.865-.866Z" transform="translate(-464.936 -398.692)"/>
        </g>
      </g>
    </g>
  </g>
</svg>
